<?xml version="1.0" encoding="utf-8" ?>
<svg xmlns="http://www.w3.org/2000/svg" xmlns:xlink="http://www.w3.org/1999/xlink" width="1024" height="1024">
	<path fill="#262F8B" transform="scale(2 2)" d="M312.42 109.234C316.212 95.2525 319.538 81.3811 333.089 73.6543C341.97 68.5904 352.252 69.494 362.084 69.6802C352.08 100.926 342.606 132.335 333.115 163.74L324.01 193.39C322.826 197.249 321.733 202.64 320.135 206.191L319.912 206.013C320.031 200.621 325.223 191.613 325.374 187.037C322.113 190.988 324.079 183.094 322.299 180.164C322.088 179.817 322.09 108.563 320.265 96.8875C320.014 95.2844 318.956 93.7223 319.321 92.0647C319.525 91.1365 319.971 89.1391 319.849 88.2004C317.839 91.4009 314.28 108.097 312.42 109.234Z"/>
	<path fill="#6A2B9B" transform="scale(2 2)" d="M312.42 109.234C314.28 108.097 317.839 91.4009 319.849 88.2004C319.971 89.1391 319.525 91.1365 319.321 92.0647C318.956 93.7223 320.014 95.2844 320.265 96.8875C322.09 108.563 322.088 179.817 322.299 180.164C324.079 183.094 322.113 190.988 325.374 187.037C325.223 191.613 320.031 200.621 319.912 206.013L320.135 206.191C317.202 218.984 312.488 231.589 308.708 244.167L287.771 314.959C285.838 321.573 283.608 328.092 281.75 334.731C275.159 314.653 266.134 289.555 261.147 269.174C260.315 265.773 273.948 227.803 276.005 221.463L308.184 122.242C309.571 117.965 310.667 113.365 312.42 109.234Z"/>
	<defs>
		<linearGradient id="gradient_0" gradientUnits="userSpaceOnUse" x1="226.2439" y1="249.2717" x2="94.256104" y2="258.2283">
			<stop offset="0" stop-color="#002981"/>
			<stop offset="1" stop-color="#9B36A3"/>
		</linearGradient>
	</defs>
	<path fill="url(#gradient_0)" transform="scale(2 2)" d="M81.3969 69.6802L123.76 69.6802C125.219 74.2264 126.606 78.7575 128.642 83.0856C129.246 89.475 133.547 100.426 135.637 106.909L231.529 412.009C234.162 420.711 237.246 429.337 239.362 438.184C206.273 438.001 204.103 441.322 192.579 407.189L134.39 232.646C133.157 228.974 132.115 225.134 130.503 221.613L130.122 220.764C129.16 214.589 125.62 205.93 123.569 199.75L81.3969 69.6802Z"/>
	<defs>
		<linearGradient id="gradient_1" gradientUnits="userSpaceOnUse" x1="314.14026" y1="437.05966" x2="281.62598" y2="57.503681">
			<stop offset="0" stop-color="#0CBAC3"/>
			<stop offset="1" stop-color="#06ECED"/>
		</linearGradient>
	</defs>
	<path fill="url(#gradient_1)" transform="scale(2 2)" d="M372.56 69.6802L430.851 69.6802C429.513 76.3028 426.072 84.8337 423.895 91.4307L418.131 108.799C416.482 113.898 414.97 119.034 413.115 124.064C407.648 139.903 402.92 155.986 397.617 171.88L315.036 425.097C313.611 429.453 312.367 433.991 310.525 438.184C304.017 438.594 297.207 438.191 290.671 438.189L249.848 438.184C246.409 426.372 242.439 414.711 238.767 402.969L138.395 81.5253C137.263 77.8252 135.288 73.5285 134.939 69.6802C171.578 68.3619 188.883 65.0601 200.706 106.013L206.271 125.265C207.881 130.663 209.795 135.973 211.459 141.356L281.75 366.404C283.938 362.786 284.988 356.817 286.191 352.696L372.56 69.6802Z"/>
</svg>
