<?xml version="1.0" standalone="no"?><!DOCTYPE svg PUBLIC "-//W3C//DTD SVG 1.1//EN"
  "http://www.w3.org/Graphics/SVG/1.1/DTD/svg11.dtd">
<svg t="1589257410693" class="icon" viewBox="0 0 1024 1024" version="1.1" xmlns="http://www.w3.org/2000/svg"
     p-id="27729" xmlns:xlink="http://www.w3.org/1999/xlink" width="200" height="200">
  <defs>
    <style type="text/css"></style>
  </defs>
  <path
    d="M982.143707 43.271526l0 24.797779c-31.677467 5.439896-56.31561 16.4783-71.514777 30.237675-23.357987 21.918195-43.99705 55.036477-61.915142 98.872868L536.735357 959.844841l-26.077935 0L175.482687 187.581236c-17.919115-39.83731-28.797883-63.195298-35.677571-72.794933-11.039427-13.759375-24.797779-24.797779-41.277102-31.677467-16.4783-8.319479-37.117362-12.319583-64.635089-15.038508L33.892925 43.271526l365.573069 0 0 24.797779c-41.277102 4.15974-68.635193 11.039427-81.114412 20.638039-12.319583 9.599635-17.919115 23.357987-17.919115 38.557154 0 21.918195 9.599635 56.31561 30.237675 103.032608l228.143047 524.921287 211.664747-518.042623c20.638039-50.876738 31.677467-86.553285 31.677467-105.752556 0-12.319583-6.879688-24.797779-19.198248-37.117362-12.319583-11.039427-34.397415-19.198248-64.635089-24.797779-2.719948 0-5.439896-1.439792-11.039427-1.439792L707.282638 43.271526 982.143707 43.271526 982.143707 43.271526z"
    fill="#E11010" p-id="27730"></path>
</svg>
